<svg width="19" height="19" viewBox="0 0 19 19" fill="none" xmlns="http://www.w3.org/2000/svg">
<path d="M2.80682 1.29545C2.40598 1.29545 2.02156 1.45469 1.73812 1.73812C1.45469 2.02156 1.29545 2.40598 1.29545 2.80682V16.1932C1.29547 16.5566 1.42643 16.9079 1.66435 17.1826C1.90227 17.4573 2.23121 17.6371 2.59091 17.689V11.4432C2.59091 10.9278 2.79564 10.4336 3.16005 10.0691C3.52447 9.70473 4.01873 9.5 4.53409 9.5H14.4659C14.9813 9.5 15.4755 9.70473 15.8399 10.0691C16.2044 10.4336 16.4091 10.9278 16.4091 11.4432V17.689C16.7688 17.6371 17.0977 17.4573 17.3357 17.1826C17.5736 16.9079 17.7045 16.5566 17.7045 16.1932V4.997C17.7045 4.59541 17.5456 4.21109 17.2615 3.92782L15.0722 1.7385C14.9318 1.59803 14.7651 1.4866 14.5817 1.41058C14.3982 1.33456 14.2016 1.29544 14.003 1.29545H13.8182V4.96591C13.8182 5.22109 13.7679 5.47377 13.6703 5.70953C13.5726 5.94529 13.4295 6.1595 13.249 6.33995C13.0686 6.52039 12.8544 6.66352 12.6186 6.76117C12.3829 6.85883 12.1302 6.90909 11.875 6.90909H6.26136C5.746 6.90909 5.25174 6.70436 4.88733 6.33995C4.52291 5.97553 4.31818 5.48127 4.31818 4.96591V1.29545H2.80682ZM5.61364 1.29545V4.96591C5.61364 5.32345 5.90382 5.61364 6.26136 5.61364H11.875C12.0468 5.61364 12.2115 5.54539 12.333 5.42392C12.4545 5.30245 12.5227 5.1377 12.5227 4.96591V1.29545H5.61364ZM15.1136 17.7045V11.4432C15.1136 11.2714 15.0454 11.1066 14.9239 10.9852C14.8024 10.8637 14.6377 10.7955 14.4659 10.7955H4.53409C4.3623 10.7955 4.19755 10.8637 4.07608 10.9852C3.95461 11.1066 3.88636 11.2714 3.88636 11.4432V17.7045H15.1136ZM0 2.80682C0 2.0624 0.295717 1.34848 0.822098 0.822098C1.34848 0.295717 2.0624 0 2.80682 0H14.0039C14.7483 4.4453e-05 15.4622 0.295791 15.9885 0.822182L18.1778 3.0115C18.7046 3.53832 19 4.25255 19 4.997V16.1932C19 16.9376 18.7043 17.6515 18.1779 18.1779C17.6515 18.7043 16.9376 19 16.1932 19H2.80682C2.0624 19 1.34848 18.7043 0.822098 18.1779C0.295717 17.6515 0 16.9376 0 16.1932V2.80682Z" fill="#E58719"/>
</svg>
