<svg width="18" height="20" viewBox="0 0 18 20" fill="none" xmlns="http://www.w3.org/2000/svg">
<path fill-rule="evenodd" clip-rule="evenodd" d="M13.9652 1.87575e-07C13.464 -0.000163409 12.9689 0.106688 12.5148 0.313017C12.0606 0.519346 11.6586 0.820126 11.337 1.19414C11.0153 1.56815 10.7819 2.00628 10.6533 2.47763C10.5246 2.94898 10.5038 3.44206 10.5923 3.92208L5.60688 7.31903C5.58195 7.33581 5.55802 7.35396 5.53521 7.37339C5.02943 6.98865 4.42272 6.74996 3.78427 6.68453C3.14582 6.61911 2.50133 6.72959 1.92428 7.00336C1.34724 7.27714 0.86087 7.7032 0.520636 8.23296C0.180403 8.76272 0 9.37486 0 9.99956C0 10.6243 0.180403 11.2364 0.520636 11.7662C0.86087 12.2959 1.34724 12.722 1.92428 12.9958C2.50133 13.2695 3.14582 13.38 3.78427 13.3146C4.42272 13.2492 5.02943 13.0105 5.53521 12.6257C5.55799 12.6455 5.58192 12.664 5.60688 12.6811L10.5923 16.0781C10.4443 16.8809 10.604 17.7087 11.041 18.4047C11.478 19.1007 12.1622 19.6166 12.9638 19.8547C13.7655 20.0929 14.6291 20.0368 15.3911 19.697C16.1531 19.3572 16.7606 18.7573 17.0986 18.0109C17.4367 17.2646 17.4818 16.4235 17.2253 15.6469C16.9689 14.8704 16.4288 14.2123 15.7073 13.7972C14.9857 13.3821 14.1328 13.2389 13.3101 13.3946C12.4873 13.5503 11.7517 13.9942 11.2427 14.6422L6.52176 11.4268C6.73256 10.9939 6.85061 10.5108 6.85061 10.0001C6.85061 9.4893 6.73256 9.00519 6.52176 8.5734L11.2437 5.35696C11.5974 5.8075 12.0634 6.1628 12.5975 6.38926C13.1317 6.61572 13.7163 6.70587 14.2963 6.65117C14.8762 6.59647 15.4322 6.39873 15.9117 6.07666C16.3912 5.75458 16.7784 5.31882 17.0366 4.81056C17.2948 4.30231 17.4155 3.73837 17.3873 3.17207C17.3591 2.60577 17.1829 2.05582 16.8755 1.57423C16.568 1.09265 16.1393 0.695338 15.6301 0.419874C15.1208 0.14441 14.5478 -0.000102728 13.9652 1.87575e-07ZM12.1206 3.33336C12.1206 2.85733 12.315 2.40079 12.6609 2.06418C13.0068 1.72758 13.476 1.53847 13.9652 1.53847C14.4544 1.53847 14.9235 1.72758 15.2694 2.06418C15.6153 2.40079 15.8097 2.85733 15.8097 3.33336C15.8097 3.80939 15.6153 4.26593 15.2694 4.60253C14.9235 4.93914 14.4544 5.12824 13.9652 5.12824C13.476 5.12824 13.0068 4.93914 12.6609 4.60253C12.315 4.26593 12.1206 3.80939 12.1206 3.33336ZM3.42509 8.20519C2.93589 8.20519 2.46673 8.39429 2.12082 8.7309C1.7749 9.0675 1.58057 9.52404 1.58057 10.0001C1.58057 10.4761 1.7749 10.9326 2.12082 11.2692C2.46673 11.6059 2.93589 11.795 3.42509 11.795C3.91428 11.795 4.38344 11.6059 4.72935 11.2692C5.07527 10.9326 5.2696 10.4761 5.2696 10.0001C5.2696 9.52404 5.07527 9.0675 4.72935 8.7309C4.38344 8.39429 3.91428 8.20519 3.42509 8.20519ZM13.9652 14.8719C13.476 14.8719 13.0068 15.061 12.6609 15.3976C12.315 15.7342 12.1206 16.1908 12.1206 16.6668C12.1206 17.1428 12.315 17.5994 12.6609 17.936C13.0068 18.2726 13.476 18.4617 13.9652 18.4617C14.4544 18.4617 14.9235 18.2726 15.2694 17.936C15.6153 17.5994 15.8097 17.1428 15.8097 16.6668C15.8097 16.1908 15.6153 15.7342 15.2694 15.3976C14.9235 15.061 14.4544 14.8719 13.9652 14.8719Z" fill="#3F3F3F"/>
</svg>
