<svg width="18" height="14" viewBox="0 0 18 14" fill="none" xmlns="http://www.w3.org/2000/svg">
<path d="M17.6868 3.9707C17.5515 3.85097 17.3841 3.77475 17.2059 3.75172C17.0278 3.72869 16.8469 3.75989 16.6863 3.84135L12.9204 5.74354L9.7763 0.445553C9.69548 0.309604 9.58141 0.197147 9.44514 0.119083C9.30887 0.0410201 9.15503 0 8.99853 0C8.84203 0 8.68819 0.0410201 8.55192 0.119083C8.41565 0.197147 8.30158 0.309604 8.22075 0.445553L5.07665 5.74582L1.31228 3.84363C1.15203 3.76289 0.971847 3.73197 0.794336 3.75474C0.616826 3.77751 0.4499 3.85296 0.314504 3.97162C0.179109 4.09028 0.0812761 4.24687 0.0332836 4.42173C-0.0147088 4.59659 -0.0107231 4.78194 0.0447406 4.95451L2.81983 13.5798C2.84773 13.6665 2.89446 13.7456 2.95657 13.8115C3.01868 13.8774 3.09458 13.9283 3.17867 13.9604C3.26276 13.9926 3.35289 14.0051 3.4424 13.9972C3.53192 13.9893 3.61854 13.961 3.69586 13.9146C3.71461 13.9032 5.63242 12.7824 8.99853 12.7824C12.3646 12.7824 14.2824 13.9032 14.2997 13.9138C14.3771 13.9607 14.4638 13.9893 14.5536 13.9975C14.6433 14.0058 14.7337 13.9934 14.8181 13.9613C14.9025 13.9292 14.9786 13.8782 15.0409 13.8122C15.1032 13.7461 15.1501 13.6667 15.178 13.5798L17.9531 4.95679C18.0101 4.78417 18.0153 4.59824 17.9679 4.42264C17.9204 4.24704 17.8226 4.08972 17.6868 3.9707ZM14.2487 12.5412C13.3487 12.1539 11.5546 11.565 8.99853 11.565C6.44245 11.565 4.64839 12.1539 3.74836 12.5412L1.40153 5.24973L4.78189 6.95942C4.98651 7.06178 5.22149 7.08271 5.44055 7.01806C5.65961 6.95342 5.84686 6.8079 5.96543 6.61018L8.99853 1.49556L12.0316 6.60865C12.1503 6.80606 12.3374 6.95133 12.5563 7.01595C12.7751 7.08057 13.0099 7.05986 13.2144 6.9579L16.5955 5.24973L14.2487 12.5412ZM12.5889 10.1064C12.5644 10.2472 12.4918 10.3748 12.3839 10.4668C12.276 10.5587 12.1396 10.6092 11.9986 10.6093C11.9634 10.6093 11.9283 10.6062 11.8936 10.6002C9.97708 10.2664 8.01848 10.2664 6.10194 10.6002C5.94519 10.6283 5.78388 10.592 5.65349 10.4994C5.5231 10.4068 5.43431 10.2654 5.40666 10.1064C5.37901 9.94739 5.41476 9.78374 5.50605 9.65147C5.59734 9.51919 5.73668 9.42912 5.89343 9.40107C7.94794 9.04296 10.0476 9.04296 12.1021 9.40107C12.2586 9.42894 12.3977 9.51859 12.4891 9.65038C12.5805 9.78217 12.6167 9.94534 12.5896 10.1041L12.5889 10.1064Z" fill="#E58719"/>
</svg>
