<svg width="23" height="18" viewBox="0 0 23 18" fill="none" xmlns="http://www.w3.org/2000/svg">
<path d="M2.53125 0C1.85992 0 1.21609 0.266685 0.741386 0.741386C0.266684 1.21609 0 1.85992 0 2.53125V5.34375C0 6.01508 0.266684 6.65891 0.741386 7.13361C1.21609 7.60832 1.85992 7.875 2.53125 7.875H5.34375C6.01508 7.875 6.65891 7.60832 7.13361 7.13361C7.60832 6.65891 7.875 6.01508 7.875 5.34375V2.53125C7.875 1.85992 7.60832 1.21609 7.13361 0.741386C6.65891 0.266685 6.01508 0 5.34375 0H2.53125ZM1.6875 2.53125C1.6875 2.30747 1.77639 2.09286 1.93463 1.93463C2.09286 1.77639 2.30747 1.6875 2.53125 1.6875H5.34375C5.56753 1.6875 5.78214 1.77639 5.94037 1.93463C6.09861 2.09286 6.1875 2.30747 6.1875 2.53125V5.34375C6.1875 5.56753 6.09861 5.78214 5.94037 5.94037C5.78214 6.0986 5.56753 6.1875 5.34375 6.1875H2.53125C2.30747 6.1875 2.09286 6.0986 1.93463 5.94037C1.77639 5.78214 1.6875 5.56753 1.6875 5.34375V2.53125ZM10.4062 1.125C10.1825 1.125 9.96786 1.21389 9.80963 1.37213C9.65139 1.53036 9.5625 1.74497 9.5625 1.96875C9.5625 2.19253 9.65139 2.40714 9.80963 2.56537C9.96786 2.72361 10.1825 2.8125 10.4062 2.8125H21.6562C21.88 2.8125 22.0946 2.72361 22.2529 2.56537C22.4111 2.40714 22.5 2.19253 22.5 1.96875C22.5 1.74497 22.4111 1.53036 22.2529 1.37213C22.0946 1.21389 21.88 1.125 21.6562 1.125H10.4062ZM10.4062 4.5C10.1825 4.5 9.96786 4.5889 9.80963 4.74713C9.65139 4.90536 9.5625 5.11997 9.5625 5.34375C9.5625 5.56753 9.65139 5.78214 9.80963 5.94037C9.96786 6.0986 10.1825 6.1875 10.4062 6.1875H18.2812C18.505 6.1875 18.7196 6.0986 18.8779 5.94037C19.0361 5.78214 19.125 5.56753 19.125 5.34375C19.125 5.11997 19.0361 4.90536 18.8779 4.74713C18.7196 4.5889 18.505 4.5 18.2812 4.5H10.4062ZM2.53125 10.125C1.85992 10.125 1.21609 10.3917 0.741386 10.8664C0.266684 11.3411 0 11.9849 0 12.6562V15.4688C0 15.8012 0.0654727 16.1303 0.19268 16.4374C0.319887 16.7445 0.506338 17.0236 0.741386 17.2586C0.976434 17.4937 1.25548 17.6801 1.56258 17.8073C1.86969 17.9345 2.19884 18 2.53125 18H5.34375C5.67616 18 6.00531 17.9345 6.31242 17.8073C6.61952 17.6801 6.89857 17.4937 7.13361 17.2586C7.36866 17.0236 7.55511 16.7445 7.68232 16.4374C7.80953 16.1303 7.875 15.8012 7.875 15.4688V12.6562C7.875 11.9849 7.60832 11.3411 7.13361 10.8664C6.65891 10.3917 6.01508 10.125 5.34375 10.125H2.53125ZM1.6875 12.6562C1.6875 12.4325 1.77639 12.2179 1.93463 12.0596C2.09286 11.9014 2.30747 11.8125 2.53125 11.8125H5.34375C5.56753 11.8125 5.78214 11.9014 5.94037 12.0596C6.09861 12.2179 6.1875 12.4325 6.1875 12.6562V15.4688C6.1875 15.6925 6.09861 15.9071 5.94037 16.0654C5.78214 16.2236 5.56753 16.3125 5.34375 16.3125H2.53125C2.30747 16.3125 2.09286 16.2236 1.93463 16.0654C1.77639 15.9071 1.6875 15.6925 1.6875 15.4688V12.6562ZM10.4062 11.25C10.1825 11.25 9.96786 11.3389 9.80963 11.4971C9.65139 11.6554 9.5625 11.87 9.5625 12.0938C9.5625 12.3175 9.65139 12.5321 9.80963 12.6904C9.96786 12.8486 10.1825 12.9375 10.4062 12.9375H21.6562C21.88 12.9375 22.0946 12.8486 22.2529 12.6904C22.4111 12.5321 22.5 12.3175 22.5 12.0938C22.5 11.87 22.4111 11.6554 22.2529 11.4971C22.0946 11.3389 21.88 11.25 21.6562 11.25H10.4062ZM10.4062 14.625C10.1825 14.625 9.96786 14.7139 9.80963 14.8721C9.65139 15.0304 9.5625 15.245 9.5625 15.4688C9.5625 15.6925 9.65139 15.9071 9.80963 16.0654C9.96786 16.2236 10.1825 16.3125 10.4062 16.3125H18.2812C18.505 16.3125 18.7196 16.2236 18.8779 16.0654C19.0361 15.9071 19.125 15.6925 19.125 15.4688C19.125 15.245 19.0361 15.0304 18.8779 14.8721C18.7196 14.7139 18.505 14.625 18.2812 14.625H10.4062Z" fill="#E58719"/>
</svg>
